<?xml version="1.0" encoding="UTF-8"?>
<svg width="631px" height="380px" viewBox="0 0 631 380" version="1.1" xmlns="http://www.w3.org/2000/svg" xmlns:xlink="http://www.w3.org/1999/xlink">
    <title>Advertise</title>
    <g id="Page-1" stroke="none" stroke-width="1" fill="none" fill-rule="evenodd">
        <g id="Advertise">
            <rect id="path-1" fill="#00CAB7" fill-rule="nonzero" x="1" y="0" width="630" height="380"></rect>
            <text id="Engage-with-leaders" font-family="Lato-Bold, Lato" font-size="46" font-weight="bold" line-spacing="56" fill="#FFFFFF">
                <tspan x="48.0677736" y="230">Engage with leaders in the </tspan>
                <tspan x="106.890274" y="286">business community</tspan>
            </text>
            <g id="noun_advertisement_2949799" transform="translate(246.333333, 50.000000)" fill="#FFFFFF" fill-rule="nonzero">
                <path d="M16.4926585,25.579551 L39.2647551,25.579551 L86.3768799,0.567162884 C87.0074244,0.205323062 87.7357538,0 88.5129757,0 C90.8834183,0 92.8087707,1.92027552 92.8087707,4.28822264 L92.8087707,33.822767 L100.430941,33.822767 C105.976023,33.822767 110.490991,38.3297765 110.490991,43.8650843 L110.490991,48.8433271 C110.490991,54.3786349 105.976023,58.8856444 100.430941,58.8856444 L92.8087707,58.8856444 L92.8087707,88.4235547 C92.8070847,89.103477 92.6469197,89.7934971 92.3046723,90.4347109 C91.1936327,92.5232841 88.5905293,93.3193317 86.4982681,92.2102505 L39.2647551,67.1322264 L36.3160325,67.1322264 L36.3160325,74.0021341 L46.4586943,90.4835172 C47.6911221,92.4997224 47.0521479,95.1335797 45.0323825,96.3638351 C44.3360861,96.789628 43.563922,96.9899021 42.8001876,96.9899021 L16.2970885,97 C13.926646,97 12.0012936,95.0797245 12.0012936,92.7117774 L12.0012936,66.4809147 C5.46150215,64.5404435 0.666666667,58.4766812 0.666666667,51.3341314 L0.666666667,41.3776459 C0.666666667,32.6800264 7.77968035,25.579551 16.4926585,25.579551 Z M118.552411,68.6440673 C121.491908,73.5798466 113.75205,77.9118348 110.812552,72.9777563 L107.657328,67.6797024 C104.723092,62.7439231 112.461196,58.4119348 115.400694,63.3477141 L118.552411,68.6440673 Z M110.900559,17.9239701 C114.923778,13.8871686 121.043556,20.0224256 117.020337,24.0609304 L112.698095,28.3941046 C108.671478,32.4257963 102.551701,26.2905393 106.578317,22.2537378 L110.900559,17.9239701 L110.900559,17.9239701 Z M123.981861,33.286297 C129.345981,32.3075682 130.782915,40.7172618 125.420421,41.6943147 L119.659681,42.7417556 C114.298813,43.7137807 112.860253,35.3057631 118.225998,34.3287102 L123.981861,33.286297 Z M127.215454,51.1064977 C132.289782,53.5159574 128.692473,61.37948 123.616474,58.9700204 L118.169549,56.3800641 C113.098563,53.9689017 116.695872,46.1070819 121.771871,48.5165415 L127.215454,51.1064977 Z M27.554334,67.2882883 L20.713964,67.2882883 L20.713964,89.1351351 L34.6599099,89.1351351 L28.3192265,78.1141426 C27.8373281,77.3923039 27.554334,76.5115915 27.554334,75.5600768 L27.554334,67.2882883 Z M93.0585586,42.8198198 L93.0585586,50.6846847 L100.366795,50.6846847 C101.133021,50.6846847 101.774775,50.0203546 101.774775,49.2271746 L101.774775,44.2773299 C101.774775,43.4841499 101.133021,42.8198198 100.366795,42.8198198 L93.0585586,42.8198198 L93.0585586,42.8198198 Z M45.1193694,32.3929501 L45.1193694,60.2376805 L84.3423423,81.2702703 C84.3423423,57.9658442 84.3423423,34.6647864 84.3423423,11.3603604 L45.1193694,32.3929501 L45.1193694,32.3929501 Z M36.4031532,34.0810811 L16.682762,34.0810811 C12.679822,34.0810811 9.38288288,37.3518696 9.38288288,41.3230592 L9.38288288,51.3075715 C9.38288288,55.278761 12.679822,58.5495495 16.682762,58.5495495 L36.4031532,58.5495495 L36.4031532,34.0810811 L36.4031532,34.0810811 Z" id="Shape"></path>
            </g>
        </g>
    </g>
</svg>