<?xml version="1.0" encoding="UTF-8"?>
<svg width="280px" height="280px" viewBox="0 0 280 280" version="1.1" xmlns="http://www.w3.org/2000/svg" xmlns:xlink="http://www.w3.org/1999/xlink">
    <title>Advertise</title>
    <g id="Symbols" stroke="none" stroke-width="1" fill="none" fill-rule="evenodd">
        <g id="Advertise">
            <rect id="Rectangle" fill="#00CAB7" x="0" y="0" width="280" height="280"></rect>
            <g id="Group" transform="translate(131.000000, 221.000000)" fill="#02133F" fill-rule="nonzero">
                <g id="np_link_1713451_000000">
                    <polygon id="Path" points="22.31904 10.44936 22.31904 23.82552 -9.72022463e-14 23.82552 -9.72022463e-14 1.80552 13.47744 1.80552 13.47744 4.70424 2.94096 4.70424 2.94096 20.92584 19.38096 20.92584 19.38096 10.44936"></polygon>
                    <path d="M15.1584,0.1742544 L15.1584,3.0740544 L18.94872,3.0740544 L11.23968,10.7821344 C10.95936,11.0624544 10.802808,11.4430704 10.802808,11.8386864 C10.802808,12.2352384 10.960308,12.6158784 11.23968,12.8961744 C11.823744,13.4793024 12.76968,13.4793024 13.353744,12.8961744 L21.061824,5.1871344 L21.061824,8.8190544 L23.999904,8.8190544 L23.999904,0.1742544 L15.1584,0.1742544 Z" id="Path"></path>
                </g>
            </g>
            <text id="ADVERTISE" font-family="Lato-BlackItalic, Lato" font-size="42" font-style="italic" font-weight="700" line-spacing="40" fill="#02133F">
                <tspan x="33.065" y="211.016174">ADVERTISE</tspan>
            </text>
            <text id="ENGAGE" font-family="Lato-BlackItalic, Lato" font-size="43" font-style="italic" font-weight="700" line-spacing="26" fill="#02133F">
                <tspan x="55.4565" y="73.0641785">ENGAGE</tspan>
                <tspan x="216.682" y="88" font-family="Lato-Bold, Lato" font-size="27" font-weight="bold"> </tspan>
            </text>
            <line x1="25" y1="160" x2="253.651776" y2="159.5" id="Line" stroke="#02133F" stroke-width="2" stroke-linecap="square"></line>
            <line x1="25" y1="231" x2="122" y2="230.5" id="Line-Copy" stroke="#02133F" stroke-width="2" stroke-linecap="square"></line>
            <line x1="162.345959" y1="230.5" x2="254" y2="231" id="Line-Copy-2" stroke="#02133F" stroke-width="2" stroke-linecap="square"></line>
            <text id="with-leaders-in-the" font-family="Lato-Bold, Lato" font-size="24" font-weight="bold" line-spacing="24" fill="#02133F">
                <tspan x="38.416" y="107.512085">with leaders in the </tspan>
                <tspan x="27.982" y="131.512085">business community</tspan>
            </text>
        </g>
    </g>
</svg>