<?xml version="1.0" encoding="UTF-8"?>
<svg width="939px" height="1464px" viewBox="0 0 939 1464" version="1.1" xmlns="http://www.w3.org/2000/svg" xmlns:xlink="http://www.w3.org/1999/xlink">
    <title>KB BOB Award icon</title>
    <defs>
        <linearGradient x1="50%" y1="19.2364201%" x2="50%" y2="99.0529438%" id="linearGradient-1">
            <stop stop-color="#00C9B7" offset="0%"></stop>
            <stop stop-color="#02133F" offset="100%"></stop>
        </linearGradient>
        <path d="M294,0 C132.176065,0 0.918874172,131.266055 0.918874172,293.100917 C0.918874172,454.93578 132.176065,588 294,588 C455.823935,588 587.081126,456.733945 587.081126,294.899083 C587.081126,133.06422 455.823935,0 294,0 Z" id="path-2"></path>
    </defs>
    <g id="KB-BOB-Award-icon" stroke="none" stroke-width="1" fill="none" fill-rule="evenodd">
        <polygon id="Shape" fill="url(#linearGradient-1)" fill-rule="nonzero" points="896 488.5 853.440777 428.052326 876.357282 357.802326 817.429126 313.69186 817.429126 240.174419 745.405825 218.936047 722.48932 148.686047 648.829126 148.686047 604.63301 88.2383721 534.246602 111.110465 473.681553 67 413.116505 109.476744 342.730097 88.2383721 298.533981 147.052326 224.873786 147.052326 201.957282 218.936047 131.570874 241.80814 131.570874 315.325581 72.6427184 359.436047 95.5592233 429.686047 53 490.133721 95.5592233 550.581395 72.6427184 620.831395 131.570874 664.94186 131.570874 738.459302 201.957282 761.331395 224.873786 831.581395 298.533981 831.581395 342.730097 890.395349 413.116505 867.523256 473.681553 910 534.246602 867.523256 604.63301 890.395349 648.829126 831.581395 722.48932 831.581395 745.405825 761.331395 815.792233 738.459302 815.792233 664.94186 874.720388 620.831395 851.803883 550.581395"></polygon>
        <path d="M474.5,824 C291.175676,824 142,675.272973 142,492.5 C142,309.727027 291.175676,161 474.5,161 C657.824324,161 807,309.727027 807,492.5 C807,675.272973 657.824324,824 474.5,824 Z" id="Path" fill="#FFFFFF" fill-rule="nonzero"></path>
        <g id="Rectangle" transform="translate(180.000000, 198.000000)">
            <mask id="mask-3" fill="white">
                <use xlink:href="#path-2"></use>
            </mask>
            <use id="Mask" fill="#F0F0F0" fill-rule="nonzero" xlink:href="#path-2"></use>
            <rect fill="#FFFFFF" mask="url(#mask-3)" x="-113" y="101" width="784" height="392"></rect>
        </g>
        <path d="M203.99114,865 L166.4024,865 L109.12432,1386.01504 C107.33438,1402.18447 125.23378,1414.7607 139.5533,1403.98108 L182.51186,1373.43882 L238,865 L203.99114,865 Z" id="Path" fill="#02133F" fill-rule="nonzero"></path>
        <path d="M751.7988,865 L716,865 L771.48814,1374.15386 L814.4467,1404.73908 C828.76622,1413.73473 846.66562,1402.93995 844.87568,1386.74777 L787.5976,865 L751.7988,865 Z" id="Path" fill="#02133F" fill-rule="nonzero"></path>
        <path d="M675.080808,907.2 L648.111111,945 L603.161616,930.6 L556.414141,916.2 L516.858586,945 L479.10101,972 L441.343434,945 L401.787879,916.2 L355.040404,930.6 L310.090909,945 L283.121212,907.2 L265.141414,882 L213,1359 L468.313131,1182.6 C475.505051,1177.2 484.494949,1177.2 491.686869,1182.6 L747,1359 L694.858586,882 L675.080808,907.2 Z" id="Path" fill="#02133F" fill-rule="nonzero"></path>
        <text id="2020" font-family="Klavika-BoldItalic, Klavika" font-size="54" font-style="italic" font-weight="bold" line-spacing="38" letter-spacing="-1.231875" fill="#303030">
            <tspan x="411.67275" y="732.624">2020</tspan>
        </text>
        <text id="KootenayBiz.com" font-family="BlackerDisplay-Heavy, Blacker Display" font-size="36" font-weight="600" line-spacing="68" letter-spacing="-0.880925">
            <tspan x="321.265141" y="647" fill="#303030">Kootenay</tspan>
            <tspan x="484.8486" y="647" fill="#00C9B7">Biz</tspan>
            <tspan x="540.108169" y="647" fill="#303030">.com</tspan>
        </text>
        <text id="BEST-OF" font-family="BlackerText-Heavy, Blacker Text" font-size="87" font-weight="600" line-spacing="91" fill="#303030">
            <tspan x="260.798584" y="407.849609">BEST OF</tspan>
        </text>
        <text id="AWARDS" font-family="BlackerText-Heavy, Blacker Text" font-size="87" font-weight="600" letter-spacing="-0.1" fill="#303030">
            <tspan x="276.481641" y="603">AWARDS</tspan>
        </text>
        <polygon id="Star" fill="#00C9B7" points="427 277.5 417.007651 282.753289 418.91602 271.626644 410.832039 263.746711 422.003825 262.123356 427 252 431.996175 262.123356 443.167961 263.746711 435.08398 271.626644 436.992349 282.753289"></polygon>
        <polygon id="Star" fill="#00C9B7" points="509 277.5 499.007651 282.753289 500.91602 271.626644 492.832039 263.746711 504.003825 262.123356 509 252 513.996175 262.123356 525.167961 263.746711 517.08398 271.626644 518.992349 282.753289"></polygon>
        <polygon id="Star" fill="#00C9B7" points="387 740.5 377.007651 745.753289 378.91602 734.626644 370.832039 726.746711 382.003825 725.123356 387 715 391.996175 725.123356 403.167961 726.746711 395.08398 734.626644 396.992349 745.753289"></polygon>
        <polygon id="Star" fill="#00C9B7" points="551 740.5 541.007651 745.753289 542.91602 734.626644 534.832039 726.746711 546.003825 725.123356 551 715 555.996175 725.123356 567.167961 726.746711 559.08398 734.626644 560.992349 745.753289"></polygon>
        <polygon id="Star" fill="#00C9B7" points="469 266 456.068724 272.798374 458.538378 258.399187 448.076757 248.201626 462.534362 246.100813 469 233 475.465638 246.100813 489.923243 248.201626 479.461622 258.399187 481.931276 272.798374"></polygon>
        <text id="Biz" font-family="BlackerText-HeavyItalic, Blacker Text" font-size="150" font-style="italic" font-weight="600" fill="#00C9B7">
            <tspan x="350.125" y="521">Biz</tspan>
        </text>
    </g>
</svg>