<svg width="32" height="32" xmlns="http://www.w3.org/2000/svg"><g fill="none" fill-rule="nonzero"><path d="M16 1C7.716 1 1 7.715 1 16c0 8.284 6.716 15 15 15 8.285 0 15-6.716 15-15 0-8.285-6.715-15-15-15z" fill="#00C8F0"/><g transform="translate(6.5 6)" fill="#FFF"><path d="M13.98 0H6.02A5.525 5.525 0 00.5 5.52v7.96A5.525 5.525 0 006.02 19h7.96a5.525 5.525 0 005.52-5.52V5.52A5.525 5.525 0 0013.98 0zm4.036 13.48a4.04 4.04 0 01-4.035 4.036H6.019a4.04 4.04 0 01-4.035-4.035V5.519A4.04 4.04 0 016.02 1.484h7.962a4.04 4.04 0 014.035 4.035v7.962z"/><path d="M9.5 5c-2.757 0-5 2.243-5 5s2.243 5 5 5 5-2.243 5-5-2.243-5-5-5zm0 8.55A3.555 3.555 0 015.95 10 3.555 3.555 0 019.5 6.45 3.555 3.555 0 0113.05 10a3.555 3.555 0 01-3.55 3.55z"/><circle cx="14.5" cy="5" r="1"/></g></g></svg>