<svg width="64" height="64" xmlns="http://www.w3.org/2000/svg"><g fill="none" fill-rule="evenodd"><rect fill="#F8F8F8" width="64" height="64" rx="32"/><g fill="#02133F" fill-rule="nonzero"><path d="M35.4075829 42.3992606L24.943128 32.3068392l10.028436-8.76155269H37V18H24.3554502v5.54528651H25.92891l-.7962086.75785582-6.69194311 6.13678377v-6.83918673h1.23222751v-5.5452865H9v5.5452865h1.8957346V42.4547135H9V48h10.6729858v-5.5452865h-1.23222751v-7.1719039l7.09004741 6.728281.4549763.38817h-2.0853081v5.5452865h12.8720379v-5.5452865z"/><path d="M55.3689316 33.9013283c-1.0742861-.8639623-2.3533546-1.4541785-3.7215224-1.7172676.754423-.287026 1.4542801-.6942571 2.0707683-1.2049336 1.5760149-1.3453264 2.4502297-3.30462432 2.3833372-5.34155594.0963387-2.48741428-1.1614146-4.84068926-3.3112758-6.19544592C50.7390061 18.16129032 48.4142755 18 44.1457577 18H32.912816v4.971537h2.5103183v20.0664137h-2.2563561V48h13.0497479c4.2196789 0 7.1500115-1.0721063 9.0254244-2.6755218 1.7052308-1.4501917 2.6782219-3.5480811 2.6666027-5.7495256.0755849-2.166059-.8572211-4.2499879-2.5396216-5.6736243zM41.7837838 22.68802712h2.6231508c1.1168004-.07935433 2.2280961.21479613 3.1535672.83472228.7414227.61568332 1.1392045 1.54268964 1.070477 2.49468135 0 2.41879755-1.8419919 3.64242445-4.2819079 3.67088095h-2.5652871v-7.00028458zm3.4782366 20.24703778h-3.0750108v-7.4025974h3.3527537c3.1047689 0 4.7017907 1.5637987 4.7117624 3.5717533.0098671 2.0079545-1.3887669 3.7753247-4.9895053 3.8308441z"/></g></g></svg>