<?xml version="1.0" encoding="UTF-8"?>
<svg width="131px" height="131px" viewBox="0 0 131 131" version="1.1" xmlns="http://www.w3.org/2000/svg" xmlns:xlink="http://www.w3.org/1999/xlink">
    <!-- Generator: Sketch 63.1 (92452) - https://sketch.com -->
    <title>kb icon</title>
    <desc>Created with Sketch.</desc>
    <g id="kb-icon" stroke="none" stroke-width="1" fill="none" fill-rule="evenodd">
        <rect id="Rectangle" fill="#F8F8F8" x="0" y="0" width="131" height="131" rx="65.5"></rect>
        <g id="KB" transform="translate(19.000000, 36.000000)" fill="#02133F" fill-rule="nonzero">
            <polygon id="Shape" points="52.8151659 50.4251386 31.8862559 29.5674677 51.943128 11.4602588 56 11.4602588 56 0 30.7109005 0 30.7109005 11.4602588 33.8578199 11.4602588 32.2654028 13.0264941 18.8815166 25.7091805 18.8815166 11.5748614 21.3459716 11.5748614 21.3459716 0.114602588 0 0.114602588 0 11.5748614 3.79146919 11.5748614 3.79146919 50.5397412 0 50.5397412 0 62 21.3459716 62 21.3459716 50.5397412 18.8815166 50.5397412 18.8815166 35.7178065 33.0616114 49.6229205 33.971564 50.4251386 29.8009479 50.4251386 29.8009479 61.8853974 55.5450237 61.8853974 55.5450237 50.4251386"></polygon>
            <path d="M93.7378631,32.8627451 C91.5892911,31.077223 89.031154,29.8574429 86.2948183,29.3137255 C87.8036645,28.7205383 89.2033785,27.8789274 90.4363551,26.8235294 C93.5883847,24.043188 95.3368144,19.9939724 95.2030294,15.7843137 C95.3957068,10.6436576 92.8802002,5.7802226 88.5804778,2.98039216 C84.4780121,0.333333333 79.828551,0 71.2915154,0 L48.8256321,0 L48.8256321,10.2745098 L53.8462686,10.2745098 L53.8462686,51.745098 L49.3335564,51.745098 L49.3335564,62 L75.4330521,62 C83.87241,62 89.7330752,59.7843137 93.483901,56.4705882 C96.8943626,53.4735254 98.8403448,49.1378873 98.8171063,44.5882353 C98.9682762,40.1117134 97.1026642,35.804927 93.7378631,32.8627451 L93.7378631,32.8627451 Z M66.5675676,9.68858938 L71.8138691,9.68858938 C74.04747,9.52459043 76.2700613,10.1325014 78.1210037,11.4136821 C79.6038489,12.6860943 80.3994126,14.6019074 80.2619576,16.5693569 C80.2619576,21.5682051 76.5779738,24.0970342 71.6981419,24.1558442 L66.5675676,24.1558442 L66.5675676,9.68858938 Z M73.5240408,51.5324675 L67.3740192,51.5324675 L67.3740192,36.2337662 L74.0795266,36.2337662 C80.2890645,36.2337662 83.4831079,39.4656169 83.5030514,43.6153896 C83.5227855,47.7651623 80.7255176,51.4177273 73.5240408,51.5324675 Z" id="Shape"></path>
        </g>
    </g>
</svg>