<svg width="211" height="53" xmlns="http://www.w3.org/2000/svg" xmlns:xlink="http://www.w3.org/1999/xlink"><defs><path id="a" d="M.444.518h47.774v16.7010071H.444z"/><path id="c" d="M0 .31799727h82.8310451V32.94H0z"/><path id="e" d="M.395.31799727h77.071V32.94H.395z"/></defs><g fill="none" fill-rule="evenodd"><mask id="b" fill="#fff"><use xlink:href="#a"/></mask><path d="M14.375 13.969L8.809 8.506l5.292-4.738h1.072V.782H8.542v2.986h.826c-.13.112-.27.236-.421.377l-3.528 3.32V3.768h.655V.782H.444v2.986h1.021v10.2l-1.021.001v2.984h5.63v-2.984h-.655v-3.854l3.742 3.647c.075.068.155.138.24.207H8.3v2.984h6.791v-2.984h-.716M26.37 12.516c-.603.898-1.486 1.445-2.907 1.452-1.42-.007-2.303-.554-2.906-1.452-.597-.903-.872-2.203-.8700108-3.648C19.685 7.43 19.989 6.131 20.604 5.224c.621-.904 1.51-1.449 2.859-1.456 1.35.007 2.239.552 2.859 1.456.615.907.92 2.206.9180109 3.644C27.242 10.313 26.968 11.613 26.37 12.516zM23.463.51799667C20.931.516 18.909 1.508 17.545 3.055c-1.365 1.546-2.078 3.629-2.078 5.813 0 2.233.571 4.318 1.876 5.859 1.304 1.543 3.339 2.495 6.12 2.4920071h.016c2.773 0 4.803-.9530071 6.105-2.4920071 1.305-1.541 1.876-3.626 1.876-5.859 0-2.333-.611-4.422-1.938-5.936C28.197 1.414 26.165.516 23.463.51799667zM43.127 12.516c-.603.898-1.485 1.445-2.906 1.452-1.421-.007-2.304-.554-2.907-1.452-.597-.903-.872-2.203-.8700108-3.648C36.442 7.43 36.747 6.131 37.362 5.224c.62-.904 1.51-1.449 2.859-1.456 1.348.007 2.239.552 2.859 1.456.615.907.919 2.206.9180027 3.644C43.999 10.313 43.726 11.613 43.127 12.516zM40.221.51799667C37.689.516 35.666 1.508 34.303 3.055c-1.365 1.546-2.079 3.629-2.079 5.813 0 2.233.571 4.318 1.876 5.859 1.304 1.543 3.34 2.495 6.121 2.4920071h.016c2.773 0 4.804-.9530071 6.105-2.4920071 1.305-1.541 1.875-3.626 1.876-5.859 0-2.333-.612-4.422-1.938-5.936C44.954 1.414 42.922.516 40.221.51799667z" fill="#FFFFFE" mask="url(#b)"/><path fill="#FFFFFE" d="M48.957.782l-.154 4.736h3.003l.132-1.75h1.697v10.201h-1.022v2.984h5.998v-2.984h-1.022V3.768h1.697l.132 1.75h3.004L62.267.782h-13.31M72.289 12.078l-.154 1.89h-3.124v-3.847h3.512V7.15h-3.512V3.768h3.055l.132 1.925h3.005l-.155-4.91H63.771v2.985h1.285v10.201h-1.021v2.984h11.077l.203-5.219h-3.003l-.023.344M93.029.783H87.45v2.985h1.044v6.251c-.194-.283-.423-.583-.688-.917L81.19.783h-4.15v2.985h1.091v10.201h-1.065v2.984h5.814v-2.985h-1.499V7.449c.038.049.077.1.117.151l7.451 9.353h2.927V3.768h1.153V.783M99.98 8.633l1.009-2.724c.111-.296.218-.596.319-.907.089.314.187.615.289.902h.001l.933 2.729H99.98zm3.672-7.851h-4.048L94.18 13.968h-.989v2.985h5.733v-2.985h-.947l.827-2.218h4.794l.745 2.218h-.744v2.985h6.13v-2.985h-.984L103.652.782zM117.245.782v2.986h1.098c-.104.127-.202.254-.299.384l-2.449 3.351-2.264-3.317c-.1-.147-.202-.285-.31-.418h.793V.782h-6.498v2.986h1.027l4.956 6.806v3.394h-1v2.985h5.975v-2.985h-1.02v-3.415l4.934-6.785h1.025V.782h-5.968"/><g transform="translate(0 20)"><mask id="d" fill="#fff"><use xlink:href="#c"/></mask><path d="M12.87 27.234H9.752v-8h3.382c3.13.026 4.734 1.698 4.751 3.868-.033 2.293-1.401 4.095-5.015 4.132zM9.752 6.084h2.721c1.473 0 2.567.314 3.271.885.701.569 1.077 1.403 1.082 2.631-.013 2.551-1.913 3.84-4.442 3.867H9.752V6.084zm13.235 11.52c-1.068-.907-2.383-1.508-3.803-1.804.717-.278 1.449-.697 2.118-1.272 1.368-1.178 2.442-3.04 2.438-5.635.006-3.348-1.675-5.427-3.389-6.53-2.1-1.349-4.483-1.513-8.849-1.515H0v5.236h2.574v21.15H.264v5.237h13.36c4.318 0 7.315-1.133 9.235-2.828 1.921-1.694 2.736-3.934 2.7340117-6.055C25.597 20.977 24.573 18.947 22.987 17.604zM45.403 6.084h2.661l.001 14.148c-.002 2.907-.691 4.624-1.804 5.631-1.112 1.01-2.741 1.371-4.756 1.371-2.408-.005-3.82-.681-4.691-1.847-.872-1.17-1.208-2.936-1.207-5.155V6.084h2.044V.848H26.385v5.236h2.044v15.254c.001 3.428.55 6.359 2.469 8.443 1.922 2.084 5.133 3.221 10.254 3.2190026 4.559 0 7.939-.7930026 10.196-2.8890026 2.254-2.099 3.278-5.421 3.277-10.275V6.084h2.045V.848H45.403v5.236M79.595 15.693c-1.904-1.371-4.341-2.035-6.618-2.612l-3.707-.926c-1.005-.239-1.875-.522-2.458-.973-.578-.453-.917-1.03-.926-2.069.024-1.512 1.125-3.528 5.281-3.558 1.337-.001 2.698.295 3.779.646v3.854h6.561V2.066l-.237-.091C78.563.94 74.781.319 70.99.31799727 66.563.316 63.422 1.414 61.382 3.182c-2.04 1.767-2.942 4.193-2.94 6.726-.003 2.433.562 4.363 1.976 5.862 1.413 1.498 3.61 2.539 6.817 3.364l3.398.882c2.051.521 3.264 1.068 3.927 1.625.655.56.817 1.084.827 1.814-.004 1.084-.377 1.994-1.181 2.668-.804.672-2.082 1.111-3.922 1.111-1.705 0-3.34-.121-4.839-.677v-4.176h-7.179v8.797l.253.084c4.189 1.381 7.768 1.74 11.191 1.7380083 4.448 0 7.73-1.0840083 9.91-2.9630083 2.179-1.877 3.214-4.539 3.2110451-7.553C82.84 19.188 81.502 17.061 79.595 15.693" fill="#FFFFFE" mask="url(#d)"/></g><path fill="#FFFFFE" d="M85.477 26.084h2.688v21.15h-2.688v5.237h12.002v-5.237h-2.688v-21.15h2.688v-5.236H85.477v5.236M120.231 26.084h2.457v14.152c-.483-.851-1.154-1.769-2.037-2.879l-13.129-16.509h-8.116v5.236h2.541v21.15h-2.499v5.237h10.899v-5.237h-2.633V32.661c.252.39.557.81.89 1.23l14.803 18.58h5.312V26.084h2.677v-5.236h-11.165v5.236"/><g transform="translate(133 20)"><mask id="f" fill="#fff"><use xlink:href="#e"/></mask><path fill="#FFFFFE" mask="url(#f)" d="M17.81 22.738l-.331 4.496h-6.964v-8.265h7.397v-5.502h-7.397V6.084h6.829l.264 4.222h5.655L22.976.848H.395v5.236h2.941v21.15H.924v5.237h22.182l.379-10.076h-5.652l-.023.343M47.534 15.693c-1.903-1.371-4.34-2.035-6.617-2.611l-3.707-.928c-1.005-.238-1.876-.521-2.458-.972-.578-.453-.916-1.03-.925-2.069.024-1.512 1.125-3.527 5.279-3.558 1.338-.001 2.698.295 3.78.646v3.854h6.561v-7.99l-.236-.09C46.502.938 42.722.319 38.93.318c-4.427 0-7.568 1.096-9.607 2.864-2.041 1.767-2.942 4.193-2.94 6.726-.003 2.434.561 4.363 1.975 5.862 1.413 1.497 3.611 2.539 6.818 3.363l3.396.884c2.052.52 3.266 1.067 3.928 1.624.655.56.817 1.084.827 1.814-.003 1.084-.378 1.994-1.18 2.668-.805.672-2.083 1.111-3.923 1.111-1.705 0-3.339-.121-4.839-.677v-4.176h-7.178v8.797l.252.084c4.188 1.381 7.769 1.74 11.191 1.7380083 4.448 0 7.73-1.0840083 9.91-2.9630083 2.18-1.877 3.214-4.539 3.2110452-7.553C50.78 19.187 49.443 17.061 47.534 15.693M74.229 15.693c-1.903-1.371-4.338-2.035-6.617-2.611l-3.708-.928c-1.005-.238-1.876-.521-2.457-.97-.577-.455-.917-1.034-.926-2.071.025-1.512 1.125-3.528 5.28-3.558 1.339 0 2.698.295 3.779.646v3.854h6.562v-7.99l-.238-.09C73.197.938 69.416.319 65.626.31799727 61.198.316 58.058 1.414 56.018 3.182c-2.04 1.767-2.943 4.193-2.941 6.726-.003 2.433.562 4.363 1.976 5.862 1.413 1.498 3.61 2.539 6.817 3.364l3.398.883c2.051.52 3.265 1.067 3.926 1.624.656.56.819 1.084.828 1.814-.002 1.084-.376 1.994-1.18 2.668-.805.672-2.082 1.111-3.922 1.111-1.706 0-3.34-.121-4.84-.677v-4.176h-7.179v8.797l.252.084c4.191 1.381 7.769 1.74 11.193 1.7380083 4.446 0 7.729-1.0840083 9.909-2.9630083 2.181-1.879 3.214-4.539 3.2110452-7.553C77.475 19.187 76.138 17.061 74.229 15.693"/></g></g></svg>