<svg width="32" height="32" xmlns="http://www.w3.org/2000/svg"><path d="M24 23.985h-3.315v-5.188c0-1.237-.022-2.828-1.723-2.828-1.725 0-1.988 1.348-1.988 2.74v5.276h-3.312V13.317h3.178v1.459h.046c.442-.839 1.524-1.724 3.137-1.724 3.357 0 3.977 2.209 3.977 5.082v5.851zM9.924 11.86C8.859 11.86 8 10.998 8 9.937s.859-1.923 1.924-1.923c1.06 0 1.921.862 1.921 1.923s-.861 1.923-1.921 1.923zm1.658 12.125H8.263V13.317h3.319v10.668zM16 0C7.163 0 0 7.163 0 16c0 8.836 7.163 16 16 16s16-7.164 16-16c0-8.837-7.163-16-16-16z" fill="#FFF" fill-rule="evenodd"/></svg>