<?xml version="1.0" encoding="UTF-8"?>
<svg width="1920px" height="550px" viewBox="0 0 1920 550" version="1.1" xmlns="http://www.w3.org/2000/svg" xmlns:xlink="http://www.w3.org/1999/xlink">
    <title>shop-local-banner</title>
    <g id="shop-local-banner" stroke="none" stroke-width="1" fill="none" fill-rule="evenodd">
        <rect id="Rectangle" fill="#02133F" x="0" y="0" width="1920" height="830"></rect>
        <g id="noun_Local-Marketplace_3565327" transform="translate(929.000000, 94.000000)" fill="#FFFFFF" fill-rule="nonzero">
            <g id="Group">
                <path d="M263.831207,241.264772 L192.25795,241.264772 C183.356957,241.264772 176.141277,248.528361 176.141277,257.488452 L176.141277,289.935811 C176.141277,298.895901 183.356957,306.15949 192.25795,306.15949 L263.831207,306.15949 C272.703442,306.089984 279.878832,298.866952 279.94788,289.935811 L279.94788,257.488452 C279.94788,248.528361 272.7322,241.264772 263.831207,241.264772 Z M186.801124,289.935811 L186.801124,257.488452 C186.800717,256.04307 187.379647,254.65866 188.406819,253.648715 C189.433991,252.63877 190.822509,252.088726 192.25795,252.12314 L222.587752,252.12314 L222.587752,295.301122 L192.25795,295.301122 C189.319812,295.236913 186.934015,292.891128 186.801124,289.935811 L186.801124,289.935811 Z M269.16113,289.935811 C269.094083,292.870579 266.746619,295.233629 263.831207,295.301122 L233.374502,295.301122 L233.374502,252.12314 L263.831207,252.12314 C266.774842,252.12314 269.16113,254.525272 269.16113,257.488452 L269.16113,289.935811 Z" id="Shape"></path>
                <path d="M349.871398,349.209726 L316.24212,349.209726 L316.24212,223.252656 C317.886523,223.441541 319.546932,223.441541 321.191335,223.252656 C339.930537,222.978232 355.055612,207.752735 355.328225,188.889114 L355.328225,188.889114 L355.328225,188.889114 C355.328225,188.889114 355.328225,188.889114 355.328225,188.889114 C355.377579,188.422031 355.377579,187.950996 355.328225,187.483913 C355.328225,187.483913 355.328225,187.483913 355.328225,187.483913 C355.131508,186.926764 354.77894,186.438764 354.313001,186.078713 L354.313001,186.078713 L315.353799,147.75506 C314.304614,146.807232 312.955829,146.264136 311.546711,146.222114 L215.734994,146.222114 C212.819582,146.289607 210.472118,148.652657 210.40507,151.587426 C210.370883,153.032397 210.917299,154.430135 211.920582,155.464126 C212.923866,156.498118 214.299145,157.080892 215.734994,157.080483 L219.03447,157.080483 L228.044579,184.929003 L127.664355,184.929003 L136.674464,157.080483 L139.593231,157.080483 C141.029079,157.080892 142.404358,156.498118 143.407642,155.464126 C144.410926,154.430135 144.957341,153.032397 144.923155,151.587426 C144.856107,148.652657 142.508643,146.289607 139.593231,146.222114 L44.4160281,146.222114 C43.04125,146.248098 41.7268944,146.79558 40.7358429,147.75506 L1.64973819,186.078713 L1.64973819,186.078713 C1.18379972,186.438764 0.831231167,186.926764 0.634514687,187.483913 L0.634514687,187.483913 C0.521606848,187.945419 0.521606848,188.427609 0.634514687,188.889114 C0.634514687,188.889114 0.634514687,188.889114 0.634514687,188.889114 L0.634514687,188.889114 L0,188.889114 C0.0658656966,207.923899 15.2306847,223.416401 34.1368902,223.763638 C35.7384738,223.958929 37.3576182,223.958929 38.9592018,223.763638 L38.9592018,349.720708 L5.32992337,349.720708 C2.66790421,350.132962 0.702832682,352.438673 0.702832682,355.149892 C0.702832682,357.861112 2.66790421,360.166823 5.32992337,360.579076 L349.871398,360.579076 C351.995741,360.908063 354.114053,359.951106 355.282,358.134815 C356.449947,356.318523 356.449947,353.981261 355.282,352.16497 C354.114053,350.348678 351.995741,349.391722 349.871398,349.720708 L349.871398,349.209726 Z M321.191335,213.033015 C310.254156,212.829436 300.87224,205.126339 298.475709,194.382171 L344.033863,194.382171 C341.584785,205.146192 332.159594,212.841827 321.191335,213.033015 L321.191335,213.033015 Z M336.800396,182.885075 L295.430038,182.885075 L277.79053,155.036554 L308.754847,155.036554 L336.800396,182.885075 Z M264.973333,155.036554 L282.739745,182.885075 L239.085134,182.885075 L229.948123,155.036554 L264.973333,155.036554 Z M286.673736,193.360207 C285.073125,204.616979 275.618668,213.05651 264.324975,213.309851 C253.031281,213.563192 243.212741,205.555995 241.115581,194.382171 L286.673736,193.360207 Z M229.186705,193.360207 C227.322918,204.562595 217.691121,212.769548 206.407628,212.769548 C195.124134,212.769548 185.492338,204.562595 183.62855,193.360207 L229.186705,193.360207 Z M116.369994,182.374093 L72.5884802,182.374093 L90.4817944,154.525572 L125.380102,154.525572 L116.369994,182.374093 Z M114.212644,194.382171 C112.064257,205.354944 102.605162,213.334189 91.4970179,213.543997 C80.3763523,213.298083 70.9001426,205.34881 68.6544891,194.382171 L114.212644,194.382171 Z M171.699674,194.382171 C169.835887,205.584559 160.20409,213.791512 148.920597,213.791512 C137.637104,213.791512 128.005307,205.584559 126.14152,194.382171 L171.699674,194.382171 Z M46.700281,156.058518 L77.5376948,156.058518 L59.8981865,182.885075 L18.5278289,182.885075 L46.700281,156.058518 Z M11.2943614,194.382171 L56.852516,194.382171 C54.6605394,205.328937 45.2272219,213.286437 34.1368902,213.543997 C23.0162246,213.298083 13.5400149,205.34881 11.2943614,194.382171 L11.2943614,194.382171 Z M139.593231,295.301122 L86.1670943,295.301122 L86.1670943,256.97747 C86.1670943,255.532088 86.7456179,254.147678 87.7727895,253.137733 C88.7999612,252.127787 90.1884796,251.577744 91.6239208,251.612158 L134.644017,251.612158 C137.587652,251.612158 139.97394,254.01429 139.97394,256.97747 L139.593231,295.301122 Z M86.1670945,349.209726 L86.1670945,306.15949 L139.593231,306.15949 L139.593231,349.209726 L86.1670945,349.209726 Z M150.76069,349.209726 L150.76069,257.488452 C150.76069,248.528361 143.545009,241.264772 134.644017,241.264772 L91.6239208,241.264772 C87.3275681,241.230717 83.1955523,242.924947 80.1455874,245.971176 C77.0956225,249.017405 75.3802116,253.163439 75.3803448,257.488452 L75.3803448,349.209726 L49.9997573,349.209726 L49.9997573,219.931272 C55.2674384,216.864285 59.6432923,212.459377 62.6900511,207.156722 C68.741155,217.329548 79.6547026,223.556235 91.4335664,223.556235 C103.21243,223.556235 114.125978,217.329548 120.177082,207.156722 C126.228186,217.329548 137.141733,223.556235 148.920597,223.556235 C160.699461,223.556235 171.613008,217.329548 177.664112,207.156722 C183.729633,217.269271 194.609201,223.450007 206.344176,223.450007 C218.079152,223.450007 228.958719,217.269271 235.02424,207.156722 C241.075344,217.329548 251.988892,223.556235 263.767755,223.556235 C275.546619,223.556235 286.460167,217.329548 292.511271,207.156722 C295.55803,212.459377 299.933883,216.864285 305.201564,219.931272 L305.201564,349.209726 L150.76069,349.209726 Z" id="Shape"></path>
                <path d="M177.664112,173.687399 C179.224283,173.64802 180.69688,172.953157 181.725006,171.771216 C183.882356,169.08856 236.420172,106.493261 236.420172,62.4210613 C237.425751,40.6575736 226.464133,20.099765 207.890371,8.91525802 C189.31661,-2.26924897 166.138518,-2.26924897 147.564756,8.91525802 C128.990995,20.099765 118.029377,40.6575736 119.034955,62.4210613 C119.034955,106.493261 171.318966,169.08856 173.603218,171.771216 C174.631345,172.953157 176.103942,173.64802 177.664112,173.687399 Z M177.664112,14.1332594 C190.374726,14.1332594 202.562901,19.2247378 211.538749,28.2841482 C220.514598,37.3435586 225.540235,49.626101 225.506688,62.4210613 C225.506688,95.8903843 189.973697,144.178186 177.664112,159.507647 C164.973819,144.178186 129.694802,95.6348933 129.694802,62.4210613 C129.694802,35.7524447 151.171394,14.1332594 177.664112,14.1332594 Z" id="Shape"></path>
                <path d="M204.567535,62.9320433 C204.670396,51.8924458 198.136521,41.8845188 188.028905,37.5998473 C177.92129,33.3151757 166.24365,35.6031453 158.47031,43.391186 C150.69697,51.1792268 148.368904,62.9234509 152.577477,73.1183204 C156.786051,83.3131898 166.696965,89.9376913 177.664112,89.8866418 C192.444504,89.8171469 204.42891,77.8100759 204.567535,62.9320433 L204.567535,62.9320433 Z M161.420536,62.9320433 C161.490493,53.9183656 168.793675,46.6617285 177.748054,46.7083591 C186.702432,46.755441 193.930275,54.0881157 193.907194,63.1020384 C193.884001,72.1159611 186.618612,79.4112138 177.664112,79.4112138 C168.672544,79.3410468 161.420536,71.9835827 161.420536,62.9320433 L161.420536,62.9320433 Z" id="Shape"></path>
            </g>
        </g>
    </g>
</svg>