<?xml version="1.0" encoding="UTF-8"?>
<svg width="162px" height="42px" viewBox="0 0 162 42" version="1.1" xmlns="http://www.w3.org/2000/svg" xmlns:xlink="http://www.w3.org/1999/xlink">
    <!-- Generator: Sketch 63.1 (92452) - https://sketch.com -->
    <title>Group</title>
    <desc>Created with Sketch.</desc>
    <g id="Symbols" stroke="none" stroke-width="1" fill="none" fill-rule="evenodd">
        <g id="KootenayBiz-footer-DESKTOP" transform="translate(-623.000000, -153.000000)" fill="#FFFFFF">
            <g id="Group" transform="translate(623.000000, 153.000000)">
                <path d="M26.4534375,13.986 L24.4768125,13.9873125 C22.92675,13.9873125 22.6261875,14.723625 22.6261875,15.8038125 L22.6261875,18.1873125 L26.3235,18.1873125 L25.8418125,21.921375 L22.6261875,21.921375 L22.6261875,31.5 L18.771375,31.5 L18.771375,21.921375 L15.547875,21.921375 L15.547875,18.1873125 L18.771375,18.1873125 L18.771375,15.435 C18.771375,12.2390625 20.7230625,10.5 23.5725,10.5 C24.9375,10.5 26.110875,10.6010625 26.4534375,10.647 L26.4534375,13.986 Z M21,0 C9.40275,0 0,9.4014375 0,21 C0,32.59725 9.40275,42 21,42 C32.5985625,42 42,32.59725 42,21 C42,9.4014375 32.5985625,0 21,0 L21,0 Z" id="Fill-183"></path>
                <path d="M89.350125,16.7173125 C89.358,16.902375 89.36325,17.0874375 89.36325,17.275125 C89.36325,22.9674375 85.029375,29.5325625 77.1045,29.5325625 C74.671125,29.5325625 72.4070625,28.819875 70.5,27.5979375 C70.8373125,27.6373125 71.179875,27.657 71.5276875,27.657 C73.5463125,27.657 75.4035,26.96925 76.87875,25.8129375 C74.9926875,25.7788125 73.4019375,24.53325 72.8533125,22.82175 C73.117125,22.871625 73.3861875,22.897875 73.6644375,22.897875 C74.056875,22.897875 74.4375,22.845375 74.79975,22.7469375 C72.828375,22.351875 71.3439375,20.6101875 71.3439375,18.5233125 L71.3439375,18.4681875 C71.9240625,18.7910625 72.5895,18.9853125 73.295625,19.007625 C72.1393125,18.2345625 71.3780625,16.9155 71.3780625,15.421875 C71.3780625,14.63175 71.5906875,13.8915 71.962125,13.2549375 C74.0870625,15.8615625 77.262,17.577 80.8425,17.7568125 C80.769,17.4418125 80.7309375,17.112375 80.7309375,16.7750625 C80.7309375,14.3955 82.6603125,12.466125 85.0385625,12.466125 C86.278875,12.466125 87.3984375,12.9898125 88.1833125,13.8271875 C89.1650625,13.63425 90.08775,13.2759375 90.919875,12.7824375 C90.5983125,13.7878125 89.9145,14.63175 89.0259375,15.1659375 C89.8974375,15.0609375 90.7269375,14.8299375 91.5,14.487375 C90.9225,15.351 90.1914375,16.109625 89.350125,16.7173125 M81,0 C69.4014375,0 60,9.4014375 60,21 C60,32.59725 69.4014375,42 81,42 C92.5985625,42 102,32.59725 102,21 C102,9.4014375 92.5985625,0 81,0" id="Fill-184"></path>
                <path d="M151.5,31.4803125 L147.149062,31.4803125 L147.149062,24.6710625 C147.149062,23.0475 147.120187,20.9593125 144.887625,20.9593125 C142.623562,20.9593125 142.278375,22.7285625 142.278375,24.5555625 L142.278375,31.4803125 L137.931375,31.4803125 L137.931375,17.4785625 L142.1025,17.4785625 L142.1025,19.3935 L142.162875,19.3935 C142.743,18.2923125 144.163125,17.13075 146.280187,17.13075 C150.68625,17.13075 151.5,20.0300625 151.5,23.800875 L151.5,31.4803125 Z M133.02525,15.56625 C131.627437,15.56625 130.5,14.434875 130.5,13.0423125 C130.5,11.64975 131.627437,10.518375 133.02525,10.518375 C134.4165,10.518375 135.546562,11.64975 135.546562,13.0423125 C135.546562,14.434875 134.4165,15.56625 133.02525,15.56625 L133.02525,15.56625 Z M135.201375,31.4803125 L130.845187,31.4803125 L130.845187,17.4785625 L135.201375,17.4785625 L135.201375,31.4803125 Z M141,0 C129.401438,0 120,9.4014375 120,21 C120,32.59725 129.401438,42 141,42 C152.598562,42 162,32.59725 162,21 C162,9.4014375 152.598562,0 141,0 L141,0 Z" id="Fill-209"></path>
            </g>
        </g>
    </g>
</svg>