<?xml version="1.0" encoding="UTF-8"?>
<svg width="631px" height="380px" viewBox="0 0 631 380" version="1.1" xmlns="http://www.w3.org/2000/svg" xmlns:xlink="http://www.w3.org/1999/xlink">
    <title>Submit</title>
    <g id="Page-1" stroke="none" stroke-width="1" fill="none" fill-rule="evenodd">
        <g id="Submit">
            <rect id="path-1" fill="#F1F1F1" fill-rule="nonzero" x="1" y="0" width="630" height="380"></rect>
            <text id="Do-you-have-business" font-family="Lato-Bold, Lato" font-size="46" font-weight="bold" line-spacing="56" fill="#02133F">
                <tspan x="95.9767736" y="230">Do you have business </tspan>
                <tspan x="164.608774" y="286">news to share?</tspan>
            </text>
            <g id="noun_news_2733764" transform="translate(249.407407, 44.000000)" fill="#02133F" fill-rule="nonzero">
                <rect id="Rectangle" x="61.5925926" y="108" width="4" height="4"></rect>
                <path d="M111.892593,35.8214286 L92.9925926,35.8214286 L92.9925926,25.2857143 C92.9925926,21.7944857 90.1719865,18.9642857 86.6925926,18.9642857 L57.1287926,18.9642857 C57.2334314,18.2667263 57.2881713,17.5625458 57.2925926,16.8571429 L57.2925926,14.75 C57.28218,6.60813156 50.7068615,0.0104479798 42.5925926,0 L15.2925926,0 C7.17832371,0.0104479798 0.603005156,6.60813156 0.592592593,14.75 L0.592592593,16.8571429 C0.603005156,24.9990113 7.17832371,31.5966949 15.2925926,31.6071429 L29.2932926,31.6071429 L34.1925926,35.2946429 L34.1925926,52.6785714 L15.2925926,52.6785714 C7.17832371,52.6890194 0.603005156,59.286703 0.592592593,67.4285714 L0.592592593,69.5357143 C0.603005156,77.6775827 7.17832371,84.2752663 15.2925926,84.2857143 L29.2932926,84.2857143 L34.1925926,87.9732143 L34.1925926,111.678571 C34.1925926,115.1698 37.0131987,118 40.4925926,118 L86.6925926,118 C90.1719865,118 92.9925926,115.1698 92.9925926,111.678571 L92.9925926,69.9571429 L95.8821926,67.4285714 L111.892593,67.4285714 C120.006861,67.4181234 126.58218,60.8204399 126.592593,52.6785714 L126.592593,50.5714286 C126.58218,42.4295601 120.006861,35.8318766 111.892593,35.8214286 Z M67.7925926,50.5714286 L67.7925926,52.6785714 C67.7955895,53.6935101 67.9032631,54.7054126 68.1138926,55.6981071 L57.2505926,66.5983571 C56.8121368,58.7943164 50.3825217,52.6885131 42.5925926,52.6785714 L41.3619926,52.6785714 L52.4772926,41.5254643 L62.3619926,31.6071429 L88.7925926,31.6071429 L88.7925926,34.9490714 L87.9231926,35.8214286 L82.4925926,35.8214286 C74.3783237,35.8318766 67.8030052,42.4295601 67.7925926,50.5714286 L67.7925926,50.5714286 Z M44.7954926,43.2743929 L38.3925926,49.6990714 L38.3925926,38.4553571 L44.7954926,43.2743929 Z M48.2352926,39.825 L45.5052926,31.6071429 L56.4252926,31.6071429 L49.5099926,38.5459643 L48.2352926,39.825 Z M61.4925926,23.1785714 L61.4925926,25.2857143 L65.6925926,25.2857143 L65.6925926,23.1785714 L86.6925926,23.1785714 C87.8523906,23.1785714 88.7925926,24.1219714 88.7925926,25.2857143 L88.7925926,27.3928571 L52.8594926,27.3928571 C54.1013721,26.1757719 55.1206454,24.749356 55.8708926,23.1785714 L61.4925926,23.1785714 Z M29.9925926,27.3928571 L15.2925926,27.3928571 C9.49648098,27.3858907 4.79953544,22.6729691 4.79259259,16.8571429 L4.79259259,14.75 C4.79953544,8.93417372 9.49648098,4.22125217 15.2925926,4.21428571 L42.5925926,4.21428571 C48.3887042,4.22125217 53.0856497,8.93417372 53.0925926,14.75 L53.0925926,16.8571429 C53.0856497,22.6729691 48.3887042,27.3858907 42.5925926,27.3928571 C41.9179314,27.393371 41.2845986,27.7190971 40.8902593,28.2683752 C40.49592,28.8176533 40.3885994,29.5235889 40.6017926,30.1658571 L42.6744926,36.4093214 L31.2525926,27.8142857 C30.8890906,27.5407319 30.44697,27.3928571 29.9925926,27.3928571 Z M29.9925926,80.0714286 L15.2925926,80.0714286 C9.49648098,80.0644621 4.79953544,75.3515406 4.79259259,69.5357143 L4.79259259,67.4285714 C4.79953544,61.6127451 9.49648098,56.8998236 15.2925926,56.8928571 L42.5925926,56.8928571 C48.3887042,56.8998236 53.0856497,61.6127451 53.0925926,67.4285714 L53.0925926,69.5357143 C53.0856497,75.3515406 48.3887042,80.0644621 42.5925926,80.0714286 C41.9179314,80.0719424 41.2845986,80.3976685 40.8902593,80.9469466 C40.49592,81.4962247 40.3885994,82.2021603 40.6017926,82.8444286 L42.6744926,89.0878929 L31.2525926,80.4928571 C30.8890906,80.2193034 30.44697,80.0714286 29.9925926,80.0714286 Z M45.5325926,96.5071429 C46.2674504,97.0587068 47.2741332,97.0675972 48.0185526,96.5290973 C48.7629721,95.9905974 49.0726919,95.0294446 48.7833926,94.1555714 L45.4233926,84.0117857 C51.0808671,82.8872206 55.5637369,78.5529853 56.8935926,72.9218929 L69.7539926,60.01775 C71.8973331,63.7588648 75.5609251,66.3752728 79.7856926,67.1820357 L78.1056926,73.0820357 L50.1231926,101.142857 L38.3925926,101.142857 L38.3925926,91.1339286 L45.5325926,96.5071429 Z M86.6925926,113.785714 L40.4925926,113.785714 C39.3327946,113.785714 38.3925926,112.842314 38.3925926,111.678571 L38.3925926,105.357143 L88.7925926,105.357143 L88.7925926,111.678571 C88.7925926,112.842314 87.8523906,113.785714 86.6925926,113.785714 Z M81.2619926,101.142857 L88.7925926,93.5866429 L88.7925926,101.142857 L81.2619926,101.142857 Z M88.7925926,87.6276429 L75.3231926,101.142857 L56.0619926,101.142857 L76.3269926,80.8089286 C76.5698638,81.4553359 77.1130856,81.9412345 77.7808584,82.109376 C78.4486313,82.2775176 79.1561305,82.1065438 79.6743926,81.6517857 L88.7925926,73.6530714 L88.7925926,87.6276429 Z M122.392593,52.6785714 C122.38565,58.4943977 117.688704,63.2073193 111.892593,63.2142857 L95.0925926,63.2142857 C94.5844038,63.2142962 94.0934587,63.3992139 93.7107926,63.73475 L82.2678926,73.7816071 L84.5127926,65.8987857 C84.6932992,65.2630593 84.5660317,64.5791831 84.1690471,64.0516586 C83.7720626,63.524134 83.1513759,63.214107 82.4925926,63.2142857 C76.696481,63.2073193 71.9995354,58.4943977 71.9925926,52.6785714 L71.9925926,50.5714286 C71.9995354,44.7556023 76.696481,40.0426807 82.4925926,40.0357143 L111.892593,40.0357143 C117.688704,40.0426807 122.38565,44.7556023 122.392593,50.5714286 L122.392593,52.6785714 Z" id="Shape"></path>
                <rect id="Rectangle" x="11.5925926" y="9" width="33" height="4"></rect>
                <rect id="Rectangle" x="10.5925926" y="17" width="19" height="4"></rect>
                <rect id="Rectangle" x="11.5925926" y="61" width="33" height="4"></rect>
                <rect id="Rectangle" x="10.5925926" y="70" width="21" height="4"></rect>
                <rect id="Rectangle" x="77.5925926" y="46" width="38" height="4"></rect>
                <rect id="Rectangle" x="77.5925926" y="55" width="9" height="4"></rect>
            </g>
        </g>
    </g>
</svg>