<?xml version="1.0" encoding="UTF-8"?>
<svg width="630px" height="380px" viewBox="0 0 630 380" version="1.1" xmlns="http://www.w3.org/2000/svg" xmlns:xlink="http://www.w3.org/1999/xlink">
    <title>Submit</title>
    <g id="Page-1" stroke="none" stroke-width="1" fill="none" fill-rule="evenodd">
        <g id="Submit">
            <rect id="path-1" fill="#F1F1F1" fill-rule="nonzero" x="0" y="0" width="630" height="380"></rect>
            <text id="Would-you-like-to-se" font-family="Lato-Bold, Lato" font-size="36" font-weight="bold" line-spacing="46" fill="#02133F">
                <tspan x="317.103774" y="154"></tspan>
                <tspan x="317.103774" y="200"></tspan>
                <tspan x="134.214774" y="246">Would you like to send </tspan>
                <tspan x="195.387774" y="292">us a story idea?</tspan>
            </text>
            <g id="noun_news_2733764" transform="translate(250.197180, 44.000000)" fill="#02133F" fill-rule="nonzero">
                <rect id="Rectangle" x="68.8028199" y="120" width="4" height="4"></rect>
                <path d="M124.469487,39.7678571 L103.469487,39.7678571 L103.469487,28.0714286 C103.469487,24.1955731 100.33548,21.0535714 96.4694865,21.0535714 L63.6208199,21.0535714 C63.7370852,20.2791623 63.7979073,19.4974025 63.8028199,18.7142857 L63.8028199,16.375 C63.7912504,7.33614606 56.4853408,0.0115990284 47.4694865,2.84217094e-14 L17.1361532,2.84217094e-14 C8.12029888,0.0115990284 0.81438938,7.33614606 0.802819865,16.375 L0.802819865,18.7142857 C0.81438938,27.7531397 8.12029888,35.0776867 17.1361532,35.0892857 L32.6924865,35.0892857 L38.1361532,39.1830357 L38.1361532,58.4821429 L17.1361532,58.4821429 C8.12029888,58.4937419 0.81438938,65.8182889 0.802819865,74.8571429 L0.802819865,77.1964286 C0.81438938,86.2352825 8.12029888,93.5598295 17.1361532,93.5714286 L32.6924865,93.5714286 L38.1361532,97.6651786 L38.1361532,123.982143 C38.1361532,127.857998 41.2701599,131 45.1361532,131 L96.4694865,131 C100.33548,131 103.469487,127.857998 103.469487,123.982143 L103.469487,77.6642857 L106.680153,74.8571429 L124.469487,74.8571429 C133.485341,74.8455438 140.79125,67.5209968 140.80282,58.4821429 L140.80282,56.1428571 C140.79125,47.1040032 133.485341,39.7794562 124.469487,39.7678571 Z M75.4694865,56.1428571 L75.4694865,58.4821429 C75.4728164,59.6088968 75.5924537,60.7322801 75.8264865,61.8343393 L63.7561532,73.9354643 C63.2689801,65.2716563 56.1249633,58.4931798 47.4694865,58.4821429 L46.1021532,58.4821429 L58.4524865,46.1003036 L69.4354865,35.0892857 L98.8028199,35.0892857 L98.8028199,38.7993929 L97.8368199,39.7678571 L91.8028199,39.7678571 C82.7869655,39.7794562 75.481056,47.1040032 75.4694865,56.1428571 L75.4694865,56.1428571 Z M49.9171532,48.0419107 L42.8028199,55.1743929 L42.8028199,42.6919643 L49.9171532,48.0419107 Z M53.7391532,44.2125 L50.7058199,35.0892857 L62.8391532,35.0892857 L55.1554865,42.7925536 L53.7391532,44.2125 Z M68.4694865,25.7321429 L68.4694865,28.0714286 L73.1361532,28.0714286 L73.1361532,25.7321429 L96.4694865,25.7321429 C97.7581509,25.7321429 98.8028199,26.7794767 98.8028199,28.0714286 L98.8028199,30.4107143 L58.8771532,30.4107143 C60.2570194,29.0595434 61.3895452,27.47598 62.2231532,25.7321429 L68.4694865,25.7321429 Z M33.4694865,30.4107143 L17.1361532,30.4107143 C10.6960292,30.4029803 5.4772008,25.1708386 5.46948653,18.7142857 L5.46948653,16.375 C5.4772008,9.91844709 10.6960292,4.68630538 17.1361532,4.67857143 L47.4694865,4.67857143 C53.9096106,4.68630538 59.1284389,9.91844709 59.1361532,16.375 L59.1361532,18.7142857 C59.1284389,25.1708386 53.9096106,30.4029803 47.4694865,30.4107143 C46.719863,30.4112848 46.0161599,30.7728959 45.5780051,31.3826877 C45.1398503,31.9924795 45.0206052,32.7761876 45.2574865,33.4892143 L47.5604865,40.4205179 L34.8694865,30.8785714 C34.4655955,30.5748804 33.9743504,30.4107143 33.4694865,30.4107143 Z M33.4694865,88.8928571 L17.1361532,88.8928571 C10.6960292,88.8851232 5.4772008,83.6529815 5.46948653,77.1964286 L5.46948653,74.8571429 C5.4772008,68.40059 10.6960292,63.1684482 17.1361532,63.1607143 L47.4694865,63.1607143 C53.9096106,63.1684482 59.1284389,68.40059 59.1361532,74.8571429 L59.1361532,77.1964286 C59.1284389,83.6529815 53.9096106,88.8851232 47.4694865,88.8928571 C46.719863,88.8934276 46.0161599,89.2550388 45.5780051,89.8648306 C45.1398503,90.4746224 45.0206052,91.2583305 45.2574865,91.9713571 L47.5604865,98.9026607 L34.8694865,89.3607143 C34.4655955,89.0570232 33.9743504,88.8928571 33.4694865,88.8928571 Z M50.7361532,107.139286 C51.5526619,107.751615 52.6711983,107.761485 53.498331,107.163659 C54.3254637,106.565833 54.6695969,105.49879 54.3481532,104.528643 L50.6148199,93.2673214 C56.9009026,92.0188636 61.8818691,87.2071278 63.3594865,80.9556607 L77.6488199,66.629875 C80.0303093,70.7831465 84.1009671,73.6878028 88.7951532,74.5834464 L86.9284865,81.1334464 L55.8368199,112.285714 L42.8028199,112.285714 L42.8028199,101.174107 L50.7361532,107.139286 Z M96.4694865,126.321429 L45.1361532,126.321429 C43.8474888,126.321429 42.8028199,125.274095 42.8028199,123.982143 L42.8028199,116.964286 L98.8028199,116.964286 L98.8028199,123.982143 C98.8028199,125.274095 97.7581509,126.321429 96.4694865,126.321429 Z M90.4354865,112.285714 L98.8028199,103.897036 L98.8028199,112.285714 L90.4354865,112.285714 Z M98.8028199,97.2815357 L83.8368199,112.285714 L62.4354865,112.285714 L84.9521532,89.7116071 C85.2220101,90.4292288 85.8255898,90.9686586 86.5675597,91.1553242 C87.3095295,91.3419899 88.0956397,91.15218 88.6714865,90.6473214 L98.8028199,81.7673929 L98.8028199,97.2815357 Z M136.136153,58.4821429 C136.128439,64.9386958 130.909611,70.1708375 124.469487,70.1785714 L105.80282,70.1785714 C105.238166,70.178583 104.692671,70.3838731 104.267487,70.756375 L91.5531532,81.9100893 L94.0474865,73.1588214 C94.2480495,72.4530573 94.1066411,71.6938389 93.6655471,71.1081972 C93.2244532,70.5225556 92.5348013,70.1783731 91.8028199,70.1785714 C85.3626958,70.1708375 80.1438675,64.9386958 80.1361532,58.4821429 L80.1361532,56.1428571 C80.1438675,49.6863042 85.3626958,44.4541625 91.8028199,44.4464286 L124.469487,44.4464286 C130.909611,44.4541625 136.128439,49.6863042 136.136153,56.1428571 L136.136153,58.4821429 Z" id="Shape"></path>
                <rect id="Rectangle" x="12.8028199" y="10" width="37" height="4"></rect>
                <rect id="Rectangle" x="11.8028199" y="19" width="21" height="4"></rect>
                <rect id="Rectangle" x="12.8028199" y="68" width="37" height="4"></rect>
                <rect id="Rectangle" x="11.8028199" y="78" width="23" height="4"></rect>
                <rect id="Rectangle" x="86.8028199" y="51" width="42" height="4"></rect>
                <rect id="Rectangle" x="86.8028199" y="61" width="10" height="4"></rect>
            </g>
        </g>
    </g>
</svg>