<?xml version="1.0" encoding="UTF-8"?>
<svg width="280px" height="280px" viewBox="0 0 280 280" version="1.1" xmlns="http://www.w3.org/2000/svg" xmlns:xlink="http://www.w3.org/1999/xlink">
    <!-- Generator: Sketch 63.1 (92452) - https://sketch.com -->
    <title>Subscribe</title>
    <desc>Created with Sketch.</desc>
    <defs>
        <text id="text-1" font-family="Lato-Bold, Lato" font-size="20" font-weight="bold" line-spacing="26" fill="#FFFFFF">
            <tspan x="94" y="68">Do you get the </tspan>
            <tspan x="94" y="94">Kootenay Business </tspan>
            <tspan x="94" y="120">newsletter?</tspan>
        </text>
        <filter x="-8.3%" y="-10.8%" width="116.7%" height="129.2%" filterUnits="objectBoundingBox" id="filter-2">
            <feOffset dx="0" dy="4" in="SourceAlpha" result="shadowOffsetOuter1"></feOffset>
            <feGaussianBlur stdDeviation="4.5" in="shadowOffsetOuter1" result="shadowBlurOuter1"></feGaussianBlur>
            <feColorMatrix values="0 0 0 0 0   0 0 0 0 0   0 0 0 0 0  0 0 0 1 0" type="matrix" in="shadowBlurOuter1"></feColorMatrix>
        </filter>
    </defs>
    <g id="KB-Contact-page" stroke="none" stroke-width="1" fill="none" fill-rule="evenodd">
        <g id="KB---Contact-page---Desktop" transform="translate(-234.000000, -1066.000000)">
            <g id="Subscribe" transform="translate(234.000000, 1066.000000)">
                <rect id="Rectangle" fill="#FFFFFF" x="20" y="31" width="58" height="58" rx="29"></rect>
                <rect id="Rectangle" fill="#010D2C" x="0" y="0" width="280" height="280"></rect>
                <g id="arrow" transform="translate(131.000000, 221.000000)" fill="#00EAFF">
                    <g id="np_link_1713451_000000">
                        <polygon id="Path" fill-rule="nonzero" points="22.31904 10.44936 22.31904 23.82552 -9.72022463e-14 23.82552 -9.72022463e-14 1.80552 13.47744 1.80552 13.47744 4.70424 2.94096 4.70424 2.94096 20.92584 19.38096 20.92584 19.38096 10.44936"></polygon>
                        <path d="M15.1584,0.1742544 L15.1584,3.0740544 L18.94872,3.0740544 L11.23968,10.7821344 C10.95936,11.0624544 10.802808,11.4430704 10.802808,11.8386864 C10.802808,12.2352384 10.960308,12.6158784 11.23968,12.8961744 C11.823744,13.4793024 12.76968,13.4793024 13.353744,12.8961744 L21.061824,5.1871344 L21.061824,8.8190544 L23.999904,8.8190544 L23.999904,0.1742544 L15.1584,0.1742544 Z" id="Path" fill-rule="nonzero"></path>
                    </g>
                </g>
                <text id="SUBSCRIBE" font-family="Lato-Black, Lato" font-size="40" font-weight="700" line-spacing="40" fill="#FFFFFF">
                    <tspan x="33.1" y="210.920166">SUBSCRIBE</tspan>
                </text>
                <g id="Do-you-get-the-Koote" fill="#FFFFFF" fill-opacity="1">
                    <use filter="url(#filter-2)" xlink:href="#text-1"></use>
                    <use xlink:href="#text-1"></use>
                </g>
                <g id="KB-email-icon-white" transform="translate(20.000000, 61.000000)" fill="#FFFFFF">
                    <g id="np_email_1002247_000000">
                        <path d="M5.56101288,60 L52.4393906,60 C55.5127521,59.9974932 58,57.4604309 58,54.3342001 L58,24.0294454 C58,23.5556235 57.7931423,23.1068701 57.4385236,22.8034952 L49.6785221,16.1275796 L49.6785221,4.49254078 C49.6785221,3.30169658 49.213086,2.15853749 48.3856299,1.31618609 C47.5581738,0.473834694 46.4351958,0 45.2654902,0 L13.0446829,0 C10.6066719,0 8.63165096,2.01060454 8.63165096,4.49254078 L8.63165096,15.8843406 L0.561476361,22.8034952 C0.206857721,23.1068444 0,23.5556107 0,24.0294454 L0,54.3342001 C0,57.4604309 2.48724786,59.997497 5.56060941,60 L5.56101288,60 Z M52.4349776,56.7912348 L5.56101288,56.7912348 C4.22871853,56.7885355 3.15256917,55.687931 3.15256917,54.3342001 L3.15256917,27.090791 L21.1199136,40.0293085 L8.36625122,49.9642415 C7.66930738,50.4957283 7.52897297,51.5010114 8.05103465,52.2105119 C8.57310894,52.9175095 9.5606068,53.0628752 10.2575506,52.5314077 L23.8194283,41.9668771 L28.2324603,45.1758348 C28.7767006,45.5694328 29.5080787,45.5694328 30.0547903,45.1758348 L34.4678223,41.9668771 L48.0347434,52.5115121 C48.7292285,53.042999 49.7191977,52.9000977 50.2412594,52.1906164 C50.7633337,51.4811158 50.6205027,50.4758136 49.9260428,49.944346 L37.1969673,40.0293085 L54.8490952,27.3211942 L54.8490952,54.3419016 C54.8466327,55.6931937 53.7704871,56.7887319 52.4406515,56.7912348 L52.4349776,56.7912348 Z M53.966741,24.0218081 L49.6792913,27.1079269 L49.6792913,20.3267575 L53.966741,24.0218081 Z M13.045326,3.21604308 L45.2711767,3.21604308 C45.6060943,3.21604308 45.9262598,3.35158945 46.1626722,3.59226128 C46.3990846,3.8329331 46.5320682,4.15884127 46.5320682,4.49981869 L46.5320682,29.3615394 L29.1579613,41.8841759 L11.7888979,29.3615394 L11.7888979,4.4921172 C11.7938229,3.78762262 12.3528393,3.21854606 13.0448468,3.21604308 L13.045326,3.21604308 Z M8.632294,27.110109 L4.17002521,23.9011513 L8.632294,20.050402 L8.632294,27.110109 Z" id="Shape" fill-rule="nonzero"></path>
                        <g id="KB" transform="translate(16.287671, 9.261745)" fill-rule="nonzero">
                            <polygon id="Shape" points="13.8626891 13.427781 8.36936218 7.87356251 13.6338005 3.05176841 14.6986301 3.05176841 14.6986301 0 8.06086013 0 8.06086013 3.05176841 8.8868495 3.05176841 8.46887898 3.46884343 4.95593623 6.84613381 4.95593623 3.0822861 5.60279537 3.0822861 5.60279537 0.0305176841 0 0.0305176841 0 3.0822861 0.995167917 3.0822861 0.995167917 13.4582987 0 13.4582987 0 16.5100671 5.60279537 16.5100671 5.60279537 13.4582987 4.95593623 13.4582987 4.95593623 9.51134489 8.67786424 13.2141572 8.91670454 13.427781 7.82201983 13.427781 7.82201983 16.4795494 14.57921 16.4795494 14.57921 13.427781"></polygon>
                            <path d="M26.474248,8.75106657 C25.91091,8.27559739 25.2401875,7.95078041 24.5227428,7.80599315 C24.9183499,7.6480325 25.2853434,7.42391876 25.6086197,7.14287534 C26.435056,6.40249433 26.8934799,5.324223 26.8584025,4.20322708 C26.908921,2.83431452 26.2493758,1.5392236 25.1220239,0.793652815 C24.0463911,0.0887638017 22.8273407,0 20.5890001,0 L14.6986301,0 L14.6986301,2.73601365 L16.0149998,2.73601365 L16.0149998,13.7792749 L14.8318037,13.7792749 L14.8318037,16.5100671 L21.674877,16.5100671 C23.8876073,16.5100671 25.4242255,15.9200489 26.4076612,15.0376323 C27.3018562,14.2395402 27.8120767,13.0849971 27.8059838,11.8734638 C27.8456193,10.6814045 27.3564711,9.53454431 26.474248,8.75106657 L26.474248,8.75106657 Z M19.3504198,2.57998808 L20.7259569,2.57998808 C21.3115887,2.53631657 21.8943339,2.69819803 22.3796358,3.03936544 C22.7684256,3.37819787 22.9770159,3.88836243 22.9409763,4.41227733 C22.9409763,5.74342764 21.975066,6.41683309 20.6956142,6.43249368 L19.3504198,6.43249368 L19.3504198,2.57998808 Z M21.1743499,13.7226532 L19.5618648,13.7226532 L19.5618648,9.64874052 L21.3199937,9.64874052 C22.9480835,9.64874052 23.7855355,10.5093546 23.7907645,11.6144034 C23.7959386,12.7194522 23.0625179,13.6920988 21.1743499,13.7226532 Z" id="Shape"></path>
                        </g>
                    </g>
                </g>
                <line x1="25" y1="160" x2="253.651776" y2="159.5" id="Line" stroke="#FFFFFF" stroke-width="2" stroke-linecap="square"></line>
                <line x1="25" y1="234" x2="122" y2="233.5" id="Line-Copy" stroke="#FFFFFF" stroke-width="2" stroke-linecap="square"></line>
                <line x1="162.345959" y1="233.5" x2="254" y2="234" id="Line-Copy-2" stroke="#FFFFFF" stroke-width="2" stroke-linecap="square"></line>
            </g>
        </g>
    </g>
</svg>