<?xml version="1.0" encoding="UTF-8"?>
<svg width="30px" height="30px" viewBox="0 0 30 30" version="1.1" xmlns="http://www.w3.org/2000/svg" xmlns:xlink="http://www.w3.org/1999/xlink">
    <title>twitter</title>
    <g id="Page-1" stroke="none" stroke-width="1" fill="none" fill-rule="evenodd">
        <g id="twitter" fill="#00C8F0" fill-rule="nonzero">
            <path d="M21.3152206,11.9006021 C21.3211765,12.0345531 21.3251471,12.1685041 21.3251471,12.3043551 C21.3251471,16.4245355 18.0474265,21.1764706 12.0538235,21.1764706 C10.2134559,21.1764706 8.5011397,20.6606168 7.0588235,19.7761603 C7.3139338,19.8046605 7.5730147,19.8189106 7.8360662,19.8189106 C9.3627574,19.8189106 10.7673529,19.3211069 11.8830882,18.4841507 C10.4566544,18.4594505 9.2535662,17.5578939 8.8386397,16.3190847 C9.0381618,16.355185 9.2416544,16.3741851 9.4520956,16.3741851 C9.7488971,16.3741851 10.0367647,16.3361849 10.3107353,16.2649343 C8.8197794,15.9789822 7.6970956,14.7183229 7.6970956,13.2078118 L7.6970956,13.1679115 C8.1358456,13.4016132 8.6391176,13.5422142 9.1731618,13.5583644 C8.2986397,12.9988102 7.7229044,12.0440532 7.7229044,10.9629452 C7.7229044,10.391041 7.8837132,9.85523703 8.1646324,9.39448363 C9.7717279,11.2811976 12.1729412,12.5228567 14.8808824,12.6530077 C14.8252941,12.425006 14.7965074,12.1865542 14.7965074,11.9424024 C14.7965074,10.2200397 16.2556985,8.82352941 18.054375,8.82352941 C18.9924265,8.82352941 19.8391544,9.20258221 20.4327574,9.80868668 C21.1752574,9.66903565 21.8730882,9.40968374 22.5024265,9.0524811 C22.2592279,9.78018647 21.7420588,10.391041 21.0700368,10.7776938 C21.7291544,10.7016933 22.3565074,10.534492 22.9411765,10.2865402 C22.5044118,10.9116448 21.9515074,11.4607489 21.3152206,11.9006021 M15,0 C6.7153125,0 0,6.7153125 0,15 C0,23.28375 6.7153125,30 15,30 C23.2846875,30 30,23.28375 30,15 C30,6.7153125 23.2846875,0 15,0" id="Fill-184"></path>
        </g>
    </g>
</svg>