<?xml version="1.0" encoding="UTF-8"?>
<svg width="896px" height="196px" viewBox="0 0 896 196" version="1.1" xmlns="http://www.w3.org/2000/svg" xmlns:xlink="http://www.w3.org/1999/xlink">
    <title>Share your story</title>
    <g id="Share-your-story" stroke="none" stroke-width="1" fill="none" fill-rule="evenodd">
        <rect id="CTA1" fill="#3E75FF" x="68" y="51" width="745" height="76" rx="38"></rect>
        <text id="Share-your-story-wit" font-family="Merriweather-Black, Merriweather" font-size="32" font-weight="800" line-spacing="44" fill="#FFFFFF">
            <tspan x="210.008" y="99">Share your story with KootenayBiz</tspan>
        </text>
        <path d="M198.62932,46.9352291 L198.609819,45.9390509 C198.432805,43.2835637 197.507234,40.7230422 196.085124,38.5964597 C195.758099,38.0370355 195.315565,37.5836885 194.918034,37.0875254 C194.724519,36.8310733 194.480001,36.6369934 194.256483,36.4153571 L193.572431,35.7707451 L192.823873,35.2179877 C192.571854,35.0384268 192.331835,34.8353096 192.057314,34.700787 C191.517273,34.4141117 190.998233,34.0665457 190.420688,33.877503 L189.571623,33.5456411 C189.283601,33.450379 188.986578,33.3968959 188.694055,33.3213381 C188.400032,33.2586695 188.10901,33.1644445 187.810487,33.1294805 L186.913418,33.0453298 C186.314872,32.9546604 185.716326,33.0247366 185.11628,33.0442927 L184.666245,33.065923 L184.240212,33.1145171 L183.389647,33.2137793 L176.588123,34.0074328 C158.457727,36.1606828 140.306329,38.1349644 122.180433,40.3418456 L67.8162469,47.0909374 C58.7540491,48.1986745 49.7026521,49.4104146 40.6466047,50.579635 L38.948774,50.8006787 L38.5243913,50.8557914 L38.039854,50.9455719 L37.0697293,51.134022 C35.7998815,51.4995145 34.5328839,51.9596765 33.4008967,52.7192549 L32.9681134,52.9841517 L32.5591819,53.2918647 L31.7491195,53.9191428 C31.2555815,54.4015277 30.7236406,54.8394668 30.2889071,55.3904463 C29.352385,56.4190699 28.6072776,57.6413289 27.975729,58.9167746 C27.3510809,60.2043689 26.9322486,61.6015961 26.6413762,63.0259353 C26.5798715,63.3844646 26.5401184,63.7481792 26.4907646,64.1093753 L26.4220593,64.6520582 C26.4082583,64.8339896 26.4057081,65.0169581 26.3977575,65.1994821 L26.3622047,66.2946262 L26.4259596,67.3871035 L26.4624124,67.9327495 C26.4841641,68.1130512 26.5165666,68.291427 26.5437187,68.4709879 L26.7187822,69.5449462 L27.1116624,71.4098911 L27.9004232,75.1169656 C29.9953345,85.004226 32.1618013,94.8731154 34.2889651,104.752079 L39.5581209,128.810432 C39.6964315,129.432822 39.8129905,130.019061 40.0075555,130.718638 C40.3713335,132.062382 40.8917236,133.355754 41.5807266,134.529123 C42.9630831,136.866971 44.922834,138.767769 47.2025595,139.899655 C48.3405472,140.465598 49.5470901,140.850795 50.7755347,141.044875 C51.0839584,141.081913 51.3914821,141.130803 51.7002059,141.154507 L52.6286274,141.184138 L54.3257081,141.160434 L67.8492494,140.898203 L95.2713611,140.191516 L109.601965,176 L123.032499,141.674523 C131.803674,141.702672 140.57485,141.77823 149.347525,141.75897 C153.906376,141.741192 158.463727,141.763415 163.022578,141.705635 L163.876144,141.698228 L164.311177,141.69082 L164.791214,141.665634 C165.110739,141.6523 165.430264,141.63304 165.748288,141.578224 C166.064813,141.52637 166.384337,141.501185 166.696361,141.415256 C167.953458,141.148581 169.176052,140.683382 170.308639,140.022622 C172.581314,138.72036 174.483461,136.665484 175.740558,134.207632 L176.184592,133.269826 L176.561121,132.296463 C176.780138,131.637184 176.982653,130.94383 177.126664,130.360109 L187.58847,90.1020089 C188.850067,85.2203806 190.167169,80.3571232 191.452768,75.4837915 L195.401072,60.8938711 L197.402226,53.6078742 C197.729251,52.3839855 198.10278,51.2174319 198.354799,49.8953181 L198.456807,49.4120443 C198.488309,49.2499653 198.49431,49.0829974 198.512311,48.9188443 L198.606818,47.9290367 C198.653322,47.5996935 198.635321,47.267239 198.62932,46.9352291" id="Fill-213" fill="#00113E"></path>
        <rect id="Rectangle" fill="#FFFFFF" x="49.9566929" y="67.4305512" width="122.834646" height="6.5511811" rx="3.27559055"></rect>
        <rect id="Rectangle" fill="#FFFFFF" x="97.2364433" y="54.8741207" width="75.5548953" height="6.5511811" rx="3.27559055"></rect>
        <rect id="Rectangle" fill="#FFFFFF" x="51.3472738" y="81.0788451" width="118.199376" height="6.5511811" rx="3.27559055"></rect>
        <rect id="Rectangle" fill="#FFFFFF" x="54.1284356" y="94.7271391" width="112.637052" height="6.5511811" rx="3.27559055"></rect>
        <rect id="Rectangle" fill="#FFFFFF" x="56.4460704" y="107.829501" width="108.001783" height="6.5511811" rx="3.27559055"></rect>
        <rect id="Rectangle" fill="#FFFFFF" x="60.6178131" y="120.385932" width="97.8041896" height="6.5511811" rx="3.27559055"></rect>
    </g>
</svg>